# Blender 5.1.0
# www.blender.org
mtllib herb.mtl
o skladnik_tojad_2
v 0.084440 0.030176 -0.001599
v 0.083446 0.040608 -0.010124
v 0.077713 0.038910 -0.022237
v 0.072973 0.026780 -0.025825
v 0.073966 0.016348 -0.017300
v 0.079699 0.018046 -0.005187
v -0.004988 0.040310 0.031571
v -0.005981 0.050742 0.023046
v -0.011715 0.049043 0.010933
v -0.016455 0.036913 0.007345
v -0.015462 0.026482 0.015870
v -0.009728 0.028180 0.027983
v -0.004066 0.047049 0.063069
v -0.007227 0.080247 0.035939
v -0.025474 0.074843 -0.002610
v -0.040560 0.036240 -0.014029
v -0.037399 0.003041 0.013101
v -0.019152 0.008446 0.051650
v -0.025641 0.055986 0.087538
v -0.029825 0.099924 0.051631
v -0.053974 0.092771 0.000612
v -0.073940 0.041680 -0.014501
v -0.069757 -0.002258 0.021405
v -0.045607 0.004895 0.072425
v -0.118698 0.074406 0.101086
v -0.121041 0.099013 0.080977
v -0.134565 0.095007 0.052403
v -0.145747 0.066394 0.043940
v -0.143404 0.041786 0.064049
v -0.129880 0.045792 0.092622
v -0.154658 0.077887 0.089703
v -0.155160 0.083164 0.085391
v -0.158061 0.082305 0.079264
v -0.160459 0.076169 0.077449
v -0.159956 0.070893 0.081761
v -0.157056 0.071752 0.087888
v 0.116117 0.023790 -0.034117
v 0.117110 0.013358 -0.025592
v 0.112370 0.001228 -0.029180
v 0.106636 -0.000471 -0.041293
v 0.105643 0.009961 -0.049818
v 0.110383 0.022091 -0.046230
v -0.036677 0.026676 -0.082249
v -0.016499 0.004899 -0.057590
v -0.001704 -0.003290 -0.042290
v 0.015479 0.002901 -0.030137
v 0.035895 0.028552 -0.022242
v -0.035360 0.034600 -0.083983
v -0.007826 0.057124 -0.069017
v 0.009774 0.065820 -0.057412
v 0.024985 0.060136 -0.042661
v 0.036964 0.034991 -0.023651
v -0.040037 0.028114 -0.078230
v -0.019860 0.006337 -0.053570
v -0.005065 -0.001853 -0.038271
v 0.012119 0.004339 -0.026118
v 0.032534 0.029990 -0.018223
v -0.038721 0.036038 -0.079964
v -0.011186 0.058561 -0.064998
v 0.006413 0.067258 -0.053393
v 0.021624 0.061573 -0.038642
v 0.033604 0.036429 -0.019632
v 0.051067 0.030932 -0.008420
v 0.051557 0.033885 -0.009066
v 0.050016 0.034544 -0.007223
v 0.049526 0.031591 -0.006577
vn 0.8912 -0.2332 -0.3891
vn 0.3599 0.1790 0.9157
vn 0.2225 0.9215 0.3183
vn 0.2220 0.9221 0.3169
vn 0.3562 0.1030 0.9287
vn -0.1216 0.8090 -0.5750
vn -0.1480 0.7610 -0.6316
vn -0.3561 -0.1030 -0.9287
vn -0.3599 -0.1790 -0.9157
vn -0.2220 -0.9221 -0.3169
vn -0.2225 -0.9215 -0.3183
vn 0.1480 -0.7610 0.6316
vn 0.1216 -0.8090 0.5750
vn -0.8912 0.2332 0.3891
vn 0.9973 0.0605 -0.0421
vn 0.8668 0.2300 -0.4425
vn 0.6636 -0.0383 -0.7471
vn 0.5909 -0.4760 -0.6514
vn 0.7214 -0.6455 -0.2510
vn 0.9246 -0.3772 0.0536
vn 0.7412 0.4657 0.4835
vn 0.4734 0.8134 -0.3381
vn 0.0565 0.2628 -0.9632
vn -0.0927 -0.6353 -0.7666
vn 0.1751 -0.9830 0.0549
vn 0.5920 -0.4325 0.6800
vn 0.2325 0.6286 0.7421
vn -0.0474 0.9920 -0.1166
vn -0.4833 0.4166 -0.7700
vn -0.6392 -0.5222 -0.5646
vn -0.3593 -0.8856 0.2942
vn 0.0766 -0.3102 0.9476
vn -0.1844 0.6113 0.7696
vn -0.4130 0.9082 0.0682
vn -0.7690 0.4382 -0.4654
vn -0.8963 -0.3286 -0.2977
vn -0.6677 -0.6254 0.4037
vn -0.3118 -0.1554 0.9374
vn 0.6641 0.5100 0.5467
vn 0.3997 -0.4001 0.8247
vn -0.2820 -0.9227 0.2628
vn -0.6641 -0.5100 -0.5467
vn -0.3997 0.4001 -0.8247
vn 0.2820 0.9227 -0.2628
vn 0.6186 -0.2646 -0.7398
vn -0.6186 0.2646 0.7398
vn -0.5865 -0.7820 -0.2107
vn -0.5187 -0.8448 -0.1316
vn -0.2020 -0.9635 0.1757
vn 0.2952 -0.7943 0.5309
vn 0.5008 -0.5927 0.6308
vn 0.7692 0.0120 0.6389
vn 0.7008 0.6115 0.3672
vn 0.5613 0.8077 0.1804
vn 0.1178 0.9622 -0.2457
vn -0.2401 0.8329 -0.4986
vn -0.3292 0.7677 -0.5498
vn -0.7692 -0.0120 -0.6389
vn 0.6720 -0.2631 -0.6923
vn 0.2270 0.9616 -0.1542
vn -0.5620 0.2648 0.7836
vn -0.0921 -0.9595 0.2662
vt 0.147090 0.615385
vt 0.178705 0.612181
vt 0.197248 0.637959
vt 0.184155 0.666907
vt 0.152619 0.670248
vt 0.134037 0.644402
vt 0.161653 0.769722
vt 0.193350 0.766700
vt 0.200064 0.987762
vt 0.168427 0.990639
vt 0.001000 0.773891
vt 0.032650 0.771531
vt 0.044365 0.995896
vt 0.012626 0.995588
vt 0.064657 0.770160
vt 0.075682 0.998390
vt 0.097560 0.770125
vt 0.106731 0.999000
vt 0.129986 0.770624
vt 0.137530 0.995725
vt 0.104361 0.620146
vt 0.118278 0.612181
vt 0.132134 0.620252
vt 0.132073 0.636286
vt 0.118156 0.644251
vt 0.104300 0.636180
vt 0.093125 0.287673
vt 0.060926 0.297457
vt 0.001000 0.236325
vt 0.101684 0.182628
vt 0.185243 0.529703
vt 0.188056 0.488981
vt 0.273759 0.506477
vt 0.282429 0.606578
vt 0.172066 0.435442
vt 0.240244 0.421100
vt 0.148873 0.377905
vt 0.202375 0.340649
vt 0.122508 0.323791
vt 0.159048 0.261665
vt 0.060776 0.070494
vt 0.133297 0.001000
vt 0.170342 0.120129
vt 0.356399 0.496470
vt 0.407387 0.610722
vt 0.309884 0.399118
vt 0.265242 0.307044
vt 0.219064 0.215231
vt 0.437895 0.002896
vt 0.421609 0.080986
vt 0.537060 0.337814
vt 0.596716 0.371235
vt 0.490985 0.283722
vt 0.456216 0.221249
vt 0.431730 0.153652
vt 0.534276 0.112016
vt 0.526486 0.130361
vt 0.565042 0.228904
vt 0.582157 0.236136
vt 0.548978 0.209508
vt 0.536148 0.183600
vt 0.528030 0.155852
vt 0.121637 0.667312
vt 0.091518 0.663675
vt 0.061803 0.665241
vt 0.032730 0.671912
vt 0.002383 0.677465
vt 0.205049 0.623047
vt 0.220981 0.612181
vt 0.306518 0.641932
vt 0.201523 0.713541
vt 0.351333 0.671176
vt 0.212390 0.765940
vt 0.367237 0.720140
vt 0.252169 0.798619
vt 0.344016 0.795786
vt 0.331071 0.804615
vt 0.764548 0.012140
vt 0.766508 0.102681
vt 0.662768 0.029266
vt 0.748807 0.001000
vt 0.754737 0.154884
vt 0.617454 0.057731
vt 0.714398 0.186870
vt 0.600705 0.106411
vt 0.635404 0.191500
vt 0.622613 0.182448
vt 0.615226 0.572371
vt 0.613807 0.662923
vt 0.601060 0.662723
vt 0.602479 0.572171
vt 0.612968 0.716429
vt 0.600221 0.716230
vt 0.612162 0.767904
vt 0.599415 0.767704
vt 0.610922 0.847025
vt 0.598175 0.846825
vt 0.606714 0.895326
vt 0.606601 0.902512
vt 0.600755 0.902420
vt 0.600867 0.895235
vt 0.619832 0.278436
vt 0.618592 0.357556
vt 0.605845 0.357356
vt 0.607085 0.278236
vt 0.617785 0.409031
vt 0.605038 0.408831
vt 0.616947 0.462537
vt 0.604200 0.462338
vt 0.615528 0.553089
vt 0.602781 0.552889
vt 0.367727 0.838078
vt 0.361789 0.842127
vt 0.611293 0.229934
vt 0.617139 0.230026
vt 0.604041 0.228475
vt 0.598175 0.224324
s 1
usemtl tojad
f 40/1/1 41/2/1 42/3/1
f 42/3/1 37/4/1 38/5/1
f 40/1/1 42/3/1 38/5/1
f 39/6/1 40/1/1 38/5/1
f 1/7/2 2/8/3 8/9/4
f 8/9/4 7/10/5 1/7/2
f 2/11/3 3/12/6 9/13/7
f 9/13/7 8/14/4 2/11/3
f 3/12/6 4/15/8 10/16/9
f 10/16/9 9/13/7 3/12/6
f 4/15/8 5/17/10 11/18/11
f 11/18/11 10/16/9 4/15/8
f 5/17/10 6/19/12 12/20/13
f 12/20/13 11/18/11 5/17/10
f 6/19/12 1/7/2 7/10/5
f 7/10/5 12/20/13 6/19/12
f 31/21/14 32/22/14 33/23/14
f 33/23/14 34/24/14 35/25/14
f 31/21/14 33/23/14 35/25/14
f 36/26/14 31/21/14 35/25/14
f 7/27/15 8/28/15 14/29/15
f 14/29/15 13/30/15 7/27/15
f 8/31/16 9/32/16 15/33/16
f 15/33/16 14/34/16 8/31/16
f 9/32/17 10/35/17 16/36/17
f 16/36/17 15/33/17 9/32/17
f 10/35/18 11/37/18 17/38/18
f 17/38/18 16/36/18 10/35/18
f 11/37/19 12/39/19 18/40/19
f 18/40/19 17/38/19 11/37/19
f 12/39/20 7/27/20 13/30/20
f 13/30/20 18/40/20 12/39/20
f 13/30/21 14/41/21 20/42/21
f 20/42/21 19/43/21 13/30/21
f 14/34/22 15/33/22 21/44/22
f 21/44/22 20/45/22 14/34/22
f 15/33/23 16/36/23 22/46/23
f 22/46/23 21/44/23 15/33/23
f 16/36/24 17/38/24 23/47/24
f 23/47/24 22/46/24 16/36/24
f 17/38/25 18/40/25 24/48/25
f 24/48/25 23/47/25 17/38/25
f 18/40/26 13/30/26 19/43/26
f 19/43/26 24/48/26 18/40/26
f 19/43/27 20/42/27 26/49/27
f 26/49/27 25/50/27 19/43/27
f 20/45/28 21/44/28 27/51/28
f 27/51/28 26/52/28 20/45/28
f 21/44/29 22/46/29 28/53/29
f 28/53/29 27/51/29 21/44/29
f 22/46/30 23/47/30 29/54/30
f 29/54/30 28/53/30 22/46/30
f 23/47/31 24/48/31 30/55/31
f 30/55/31 29/54/31 23/47/31
f 24/48/32 19/43/32 25/50/32
f 25/50/32 30/55/32 24/48/32
f 25/50/33 26/49/33 32/56/33
f 32/56/33 31/57/33 25/50/33
f 26/52/34 27/51/34 33/58/34
f 33/58/34 32/59/34 26/52/34
f 27/51/35 28/53/35 34/60/35
f 34/60/35 33/58/35 27/51/35
f 28/53/36 29/54/36 35/61/36
f 35/61/36 34/60/36 28/53/36
f 29/54/37 30/55/37 36/62/37
f 36/62/37 35/61/37 29/54/37
f 30/55/38 25/50/38 31/57/38
f 31/57/38 36/62/38 30/55/38
f 2/8/39 1/7/39 38/5/39
f 38/5/39 37/4/39 2/8/39
f 1/7/40 6/19/40 39/63/40
f 39/63/40 38/5/40 1/7/40
f 6/19/41 5/17/41 40/64/41
f 40/64/41 39/63/41 6/19/41
f 5/17/42 4/15/42 41/65/42
f 41/65/42 40/64/42 5/17/42
f 4/15/43 3/12/43 42/66/43
f 42/66/43 41/65/43 4/15/43
f 3/12/44 2/11/44 37/67/44
f 37/67/44 42/66/44 3/12/44
f 43/68/45 48/69/45 49/70/45
f 49/70/45 44/71/45 43/68/45
f 44/71/45 49/70/45 50/72/45
f 50/72/45 45/73/45 44/71/45
f 45/73/45 50/72/45 51/74/45
f 51/74/45 46/75/45 45/73/45
f 46/75/45 51/74/45 52/76/45
f 52/76/45 47/77/45 46/75/45
f 53/78/46 54/79/46 59/80/46
f 59/80/46 58/81/46 53/78/46
f 54/79/46 55/82/46 60/83/46
f 60/83/46 59/80/46 54/79/46
f 55/82/46 56/84/46 61/85/46
f 61/85/46 60/83/46 55/82/46
f 56/84/46 57/86/46 62/87/46
f 62/87/46 61/85/46 56/84/46
f 43/88/47 44/89/48 54/90/48
f 54/90/48 53/91/47 43/88/47
f 44/89/48 45/92/49 55/93/49
f 55/93/49 54/90/48 44/89/48
f 45/92/49 46/94/50 56/95/50
f 56/95/50 55/93/49 45/92/49
f 46/94/50 47/96/51 57/97/51
f 57/97/51 56/95/50 46/94/50
f 63/98/52 64/99/52 65/100/52
f 65/100/52 66/101/52 63/98/52
f 52/102/53 51/103/54 61/104/54
f 61/104/54 62/105/53 52/102/53
f 51/103/54 50/106/55 60/107/55
f 60/107/55 61/104/54 51/103/54
f 50/106/55 49/108/56 59/109/56
f 59/109/56 60/107/55 50/106/55
f 49/108/56 48/110/57 58/111/57
f 58/111/57 59/109/56 49/108/56
f 48/110/58 43/88/58 53/91/58
f 53/91/58 58/111/58 48/110/58
f 47/77/59 52/76/59 64/112/59
f 64/112/59 63/113/59 47/77/59
f 52/102/60 62/105/60 65/114/60
f 65/114/60 64/115/60 52/102/60
f 62/87/61 57/86/61 66/116/61
f 66/116/61 65/117/61 62/87/61
f 57/97/62 47/96/62 63/98/62
f 63/98/62 66/101/62 57/97/62
